<?xml version="1.0" encoding="utf-8"?>
<!-- Generator: Adobe Illustrator 26.5.0, SVG Export Plug-In . SVG Version: 6.00 Build 0)  -->
<svg version="1.1" id="Layer_1" xmlns="http://www.w3.org/2000/svg" xmlns:xlink="http://www.w3.org/1999/xlink" x="0px" y="0px"
	 viewBox="0 0 170.08 226.77" style="enable-background:new 0 0 170.08 226.77;" xml:space="preserve">
<style type="text/css">
	.st0{fill:#81A9AD;}
	.st1{fill:#CD7F32;stroke:#000000;stroke-width:0.2;stroke-miterlimit:10;}
	.st2{fill:#FFD700;stroke:#000000;stroke-width:0.2;stroke-miterlimit:10;}
	.st3{fill:#C0C0C0;stroke:#000000;stroke-width:0.2;stroke-miterlimit:10;}
	.st4{fill:#FFFFFF;stroke:#000000;stroke-width:0.2;stroke-miterlimit:10;}
	.st5{fill:none;}
	.st6{font-family:'BookmanOldStyle-Bold';}
	.st7{font-size:7px;}
	.st8{font-size:16px;}
	.st9{font-size:8px;}
	.st10{letter-spacing:2;}
</style>
<rect x="-118" y="-54" class="st0" width="409" height="332"/>
<g>
	<g>
		<path class="st1" d="M43.48,40.94V34H14.39v6.94H5.66v3.47v3.47c0,5.75,3.91,10.42,8.73,10.42c0.91,0,1.79-0.17,2.62-0.48
			c2.1,3.58,5.3,6.17,9.02,7.07v10.76h-2.91c-3.22,0-5.82,3.11-5.82,6.94h23.28c0-3.84-2.6-6.94-5.82-6.94h-2.91V64.89
			c3.72-0.9,6.92-3.49,9.02-7.07c0.83,0.31,1.71,0.48,2.62,0.48c4.82,0,8.73-4.66,8.73-10.42v-3.47v-3.47H43.48z M14.39,54.18
			c-2.91,0-5.27-2.82-5.27-6.29v-3.47h5.27v3.47c0,2.18,0.34,4.27,0.95,6.19C15.03,54.14,14.71,54.18,14.39,54.18z M48.75,47.88
			c0,3.47-2.37,6.29-5.27,6.29c-0.33,0-0.64-0.04-0.95-0.1c0.61-1.92,0.95-4.01,0.95-6.19v-3.47h5.27V47.88z"/>
	</g>
</g>
<g>
	<g>
		<path class="st2" d="M43.67,165.11v-6.94H14.58v6.94H5.85v3.47v3.47c0,5.75,3.91,10.42,8.73,10.42c0.91,0,1.79-0.17,2.62-0.48
			c2.1,3.58,5.3,6.17,9.02,7.07v10.76h-2.91c-3.22,0-5.82,3.11-5.82,6.94h23.28c0-3.84-2.6-6.94-5.82-6.94h-2.91v-10.76
			c3.72-0.9,6.92-3.49,9.02-7.07c0.83,0.31,1.71,0.48,2.62,0.48c4.82,0,8.73-4.66,8.73-10.42v-3.47v-3.47H43.67z M14.58,178.34
			c-2.91,0-5.27-2.82-5.27-6.29v-3.47h5.27v3.47c0,2.18,0.34,4.27,0.95,6.19C15.22,178.3,14.9,178.34,14.58,178.34z M48.95,172.05
			c0,3.47-2.37,6.29-5.27,6.29c-0.33,0-0.64-0.04-0.95-0.1c0.61-1.92,0.95-4.01,0.95-6.19v-3.47h5.27V172.05z"/>
	</g>
</g>
<g>
	<g>
		<path class="st3" d="M43.67,103.02v-6.94H14.58v6.94H5.85v3.47v3.47c0,5.75,3.91,10.42,8.73,10.42c0.91,0,1.79-0.17,2.62-0.48
			c2.1,3.58,5.3,6.17,9.02,7.07v10.76h-2.91c-3.22,0-5.82,3.11-5.82,6.94h23.28c0-3.84-2.6-6.94-5.82-6.94h-2.91v-10.76
			c3.72-0.9,6.92-3.49,9.02-7.07c0.83,0.31,1.71,0.48,2.62,0.48c4.82,0,8.73-4.66,8.73-10.42v-3.47v-3.47H43.67z M14.58,116.26
			c-2.91,0-5.27-2.82-5.27-6.29v-3.47h5.27v3.47c0,2.18,0.34,4.27,0.95,6.19C15.22,116.22,14.9,116.26,14.58,116.26z M48.95,109.97
			c0,3.47-2.37,6.29-5.27,6.29c-0.33,0-0.64-0.04-0.95-0.1c0.61-1.92,0.95-4.01,0.95-6.19v-3.47h5.27V109.97z"/>
	</g>
</g>
<polygon class="st4" points="28.93,44.82 29.82,46.99 32.17,47.17 30.37,48.69 30.93,50.97 28.93,49.74 26.93,50.97 27.49,48.69 
	25.69,47.17 28.04,46.99 28.93,44.82 28.93,44.82 "/>
<polygon class="st4" points="26.11,107.82 27,109.99 29.35,110.17 27.55,111.69 28.11,113.97 26.11,112.74 24.1,113.97 
	24.66,111.69 22.86,110.17 25.21,109.99 26.11,107.82 26.11,107.82 "/>
<polygon class="st4" points="32.11,107.82 33,109.99 35.35,110.17 33.55,111.69 34.11,113.97 32.11,112.74 30.1,113.97 
	30.66,111.69 28.86,110.17 31.21,109.99 32.11,107.82 32.11,107.82 "/>
<polygon class="st4" points="25.64,170.2 26.53,172.37 28.88,172.55 27.08,174.08 27.64,176.36 25.64,175.12 23.64,176.36 
	24.2,174.08 22.4,172.55 24.75,172.37 25.64,170.2 25.64,170.2 "/>
<polygon class="st4" points="31.64,170.2 32.53,172.37 34.88,172.55 33.08,174.08 33.64,176.36 31.64,175.12 29.64,176.36 
	30.2,174.08 28.4,172.55 30.75,172.37 31.64,170.2 31.64,170.2 "/>
<polygon class="st4" points="28.64,164.2 29.53,166.37 31.88,166.55 30.08,168.08 30.64,170.36 28.64,169.12 26.64,170.36 
	27.2,168.08 25.4,166.55 27.75,166.37 28.64,164.2 28.64,164.2 "/>
<rect x="21.6" y="76.88" class="st5" width="16.4" height="5.12"/>
<text transform="matrix(1 0 0 1 21.6001 81.8989)" class="st6 st7">BSc</text>
<rect x="22.8" y="138.66" class="st5" width="16.4" height="5.12"/>
<text transform="matrix(1 0 0 1 22.8019 143.6753)" class="st6 st7">MSc</text>
<rect x="22.03" y="200.74" class="st5" width="16.4" height="5.12"/>
<text transform="matrix(1 0 0 1 22.0329 205.7553)" class="st6 st7">Phd</text>
<rect x="38.6" y="4.31" class="st5" width="125.28" height="34.56"/>
<text transform="matrix(1 0 0 1 38.5996 15.7773)" class="st6 st8">Education</text>
<rect x="52" y="56" class="st5" width="113" height="31"/>
<text transform="matrix(1 0 0 1 52 61.7358)"><tspan x="0" y="0" class="st6 st9">National</tspan><tspan x="34.88" y="0" class="st6 st9"> </tspan><tspan x="37.54" y="0" class="st6 st9">Aviation</tspan><tspan x="72.58" y="0" class="st6 st9"> </tspan><tspan x="75.23" y="0" class="st6 st9">Academy </tspan><tspan x="0" y="9.6" class="st6 st9">of Azerbajian</tspan><tspan x="0" y="19.2" class="st6 st9">Aviation Meteorology</tspan></text>
<text transform="matrix(1 0 0 1 81.0396 48.626)" class="st6 st9">2015-2019</text>
<text transform="matrix(1 0 0 1 81.2164 110.5806)" class="st6 st9">2021-2023</text>
<rect x="52" y="117.24" class="st5" width="113" height="31"/>
<text transform="matrix(1 0 0 1 51.9998 122.981)"><tspan x="0" y="0" class="st6 st9">University of Tartu</tspan><tspan x="0" y="9.6" class="st6 st9">Geoinformatics</tspan><tspan x="63.84" y="9.6" class="st6 st9 st10"> </tspan><tspan x="68.9" y="9.6" class="st6 st9">for</tspan><tspan x="80.58" y="9.6" class="st6 st9 st10"> </tspan><tspan x="85.64" y="9.6" class="st6 st9">Urban</tspan><tspan x="110.12" y="9.6" class="st6 st9">-</tspan><tspan x="0" y="19.2" class="st6 st9">ised Society</tspan></text>
<rect x="65.16" y="194.27" class="st5" width="72.72" height="12.73"/>
<text transform="matrix(1 0 0 1 65.1592 200.002)" class="st6 st9">Not started yet</text>
</svg>
